<svg width="2200" height="5778" viewBox="0 0 2200 5778" preserveAspectRatio="none" fill="none" xmlns="http://www.w3.org/2000/svg">
<g clip-path="url(#clip0_large_bottom)">
<g clip-path="url(#clip1_large_bottom)">
<path d="M1155.35 9337.38C1093.81 9193.32 1199.26 9050.08 1348.31 9077.49C1993.04 9196.48 2660.82 8991.72 3160.87 8406.71C3660.92 7821.7 3762.89 7177.46 3600.38 6561.06C3562.44 6417.02 3670.04 6291.13 3813.8 6311.07C4430.6 6396.3 5060.3 6184.56 5537.34 5626.47C5875.39 5230.98 6036.01 4781.99 6044.48 4335.3L3522.23 2058.96C3513.18 2063.02 3503.51 2066.27 3492.87 2068.16C3078.44 2142.61 2681.07 2364.73 2351.05 2750.83C1863.16 3321.62 1738.91 3987.57 1902.73 4600.26C1939.89 4738.7 1838.09 4858.11 1699.76 4838.65C1085.62 4752.17 457.873 4965.66 -25.539 5531.21C-508.951 6096.76 -645.915 6812.36 -456.829 7441.75C-410.048 7597.18 -538.271 7727.94 -692.472 7683.9C-1089.2 7570.62 -1474.62 7589.08 -1801.98 7758.48L1238.26 10502.3C1358.42 10141 1324.96 9733.76 1155.35 9337.38ZM3234.39 3548.04C3596.39 3124.54 4120.94 2997.63 4590.7 3421.59C5060.45 3845.55 5001.8 4401.24 4643.81 4820.05C4285.83 5238.86 3744.15 5375.25 3279.34 4955.76C2814.52 4536.26 2868.38 3976.24 3234.39 3548.04ZM857.802 6328.43C1219.8 5904.92 1744.35 5778.02 2214.11 6201.98C2683.86 6625.93 2625.21 7181.63 2267.22 7600.44C1909.24 8019.25 1367.56 8155.64 902.747 7736.14C437.933 7316.65 491.792 6756.63 857.802 6328.43Z" fill="#459271"/>
</g>
</g>
<defs>
<clipPath id="clip0_large_bottom">
<rect width="2200" height="5778" fill="white"/>
</clipPath>
<clipPath id="clip1_large_bottom">
<rect width="2200" height="5780" fill="white" transform="translate(0 -1)"/>
</clipPath>
</defs>
</svg>
