<svg width="480" height="4822" viewBox="0 0 480 4822" preserveAspectRatio="none" fill="none" xmlns="http://www.w3.org/2000/svg">
<g clip-path="url(#clip0_mobile_bottom)">
<rect width="480" height="4822" fill="#EDE8DB"/>
<g clip-path="url(#clip1_mobile_bottom)">
<rect width="480" height="4824" transform="translate(0 -1)" fill="#EDE8DB"/>
<path d="M80.2236 8291.96C43.5687 8158.62 101.654 8042.41 186.532 8081.27C553.695 8249.71 930.011 8134.36 1206.58 7666.55C1483.15 7198.73 1533.19 6639.49 1433.55 6078.88C1410.28 5947.88 1469.8 5847.21 1551.58 5878.95C1902.49 6014.82 2257.12 5889.56 2520.97 5443.27C2707.94 5127.02 2793.61 4746.06 2793.01 4352.2L1334.71 2093.15C1329.63 2095.85 1324.18 2097.77 1318.17 2098.4C1083.99 2123.48 861.272 2280.73 678.742 2589.48C408.894 3045.92 346.48 3622.16 446.822 4179.62C469.577 4305.59 413.28 4401.1 334.574 4370.33C-14.8399 4233.61 -368.344 4360.61 -635.712 4812.86C-903.079 5265.11 -972.109 5883.97 -857.231 6458.66C-828.813 6600.6 -899.964 6703.55 -987.967 6649.49C-1214.38 6510.44 -1432.78 6488.9 -1616.43 6606.44L141.357 9329.43C205.142 9021.99 181.23 8658.85 80.2236 8291.96ZM1189.47 3380.64C1389.68 3041.98 1685.69 2981.35 1957.29 3402.09C2228.9 3822.83 2202.35 4308.08 2004.36 4642.99C1806.36 4977.9 1500.74 5045.22 1232 4628.91C963.259 4212.6 987.031 3723.06 1189.47 3380.64ZM-124.988 5604.02C75.2277 5265.36 371.24 5204.73 642.841 5625.47C914.442 6046.21 887.898 6531.46 689.901 6866.37C491.905 7201.28 186.291 7268.6 -82.4514 6852.29C-351.194 6435.98 -327.422 5946.44 -124.988 5604.02Z" fill="#459271"/>
</g>
</g>
<defs>
<clipPath id="clip0_mobile_bottom">
<rect width="480" height="4822" fill="white"/>
</clipPath>
<clipPath id="clip1_mobile_bottom">
<rect width="480" height="4824" fill="white" transform="translate(0 -1)"/>
</clipPath>
</defs>
</svg>
