<svg width="2200" height="5778" viewBox="0 0 2200 5778" preserveAspectRatio="none" fill="none" xmlns="http://www.w3.org/2000/svg">
<g clip-path="url(#clip0_large_top)">
<g clip-path="url(#clip1_large_top)">
<path d="M-2928.1 4482.47C-2998.26 4318.23 -2878.04 4154.93 -2708.12 4186.18C-1973.09 4321.83 -1211.8 4088.4 -641.723 3421.46C-71.6458 2754.53 44.6039 2020.06 -140.659 1317.34C-183.921 1153.13 -61.2426 1009.61 102.643 1032.35C805.827 1129.5 1523.71 888.114 2067.55 251.866C2452.94 -199 2636.06 -710.87 2645.71 -1220.12L-229.757 -3815.24C-240.069 -3810.61 -251.1 -3806.9 -263.229 -3804.75C-735.692 -3719.88 -1188.71 -3466.65 -1564.95 -3026.48C-2121.17 -2375.76 -2262.81 -1616.54 -2076.06 -918.048C-2033.69 -760.22 -2149.74 -624.098 -2307.45 -646.279C-3007.59 -744.87 -3723.25 -501.477 -4274.36 143.269C-4825.47 788.015 -4981.62 1603.84 -4766.05 2321.36C-4712.72 2498.56 -4858.9 2647.64 -5034.69 2597.42C-5486.98 2468.28 -5926.37 2489.33 -6299.58 2682.45L-2833.58 5810.53C-2696.59 5398.64 -2734.74 4934.35 -2928.1 4482.47ZM-557.904 -2117.62C-145.21 -2600.43 452.797 -2745.11 988.34 -2261.78C1523.88 -1778.45 1457.02 -1144.94 1048.9 -667.478C640.776 -190.016 23.2417 -34.5254 -506.666 -512.769C-1036.57 -991.013 -975.171 -1629.46 -557.904 -2117.62ZM-3267.32 1052.13C-2854.62 569.32 -2256.61 424.641 -1721.07 907.97C-1185.53 1391.3 -1252.4 2024.81 -1660.52 2502.28C-2068.64 2979.74 -2686.17 3135.23 -3216.08 2656.98C-3745.98 2178.74 -3684.58 1540.29 -3267.32 1052.13Z" fill="#459271"/>
</g>
</g>
<defs>
<clipPath id="clip0_large_top">
<rect width="2200" height="5778" fill="white"/>
</clipPath>
<clipPath id="clip1_large_top">
<rect width="2200" height="5780" fill="white" transform="translate(0 -1)"/>
</clipPath>
</defs>
</svg>
