<svg width="2200" height="5778" viewBox="0 0 2200 5778" preserveAspectRatio="none" fill="none" xmlns="http://www.w3.org/2000/svg">
<g clip-path="url(#clip0_1673_10369)">
<rect width="2200" height="5778" fill="#EDE8DB"/>
<g clip-path="url(#clip1_1673_10369)">
<rect width="2200" height="5780" transform="translate(0 -1)" fill="#EDE8DB"/>
<path d="M1155.35 9337.38C1093.81 9193.32 1199.26 9050.08 1348.31 9077.49C1993.04 9196.48 2660.82 8991.72 3160.87 8406.71C3660.92 7821.7 3762.89 7177.46 3600.38 6561.06C3562.44 6417.02 3670.04 6291.13 3813.8 6311.07C4430.6 6396.3 5060.3 6184.56 5537.34 5626.47C5875.39 5230.98 6036.01 4781.99 6044.48 4335.3L3522.23 2058.96C3513.18 2063.02 3503.51 2066.27 3492.87 2068.16C3078.44 2142.61 2681.07 2364.73 2351.05 2750.83C1863.16 3321.62 1738.91 3987.57 1902.73 4600.26C1939.89 4738.7 1838.09 4858.11 1699.76 4838.65C1085.62 4752.17 457.873 4965.66 -25.539 5531.21C-508.951 6096.76 -645.915 6812.36 -456.829 7441.75C-410.048 7597.18 -538.271 7727.94 -692.472 7683.9C-1089.2 7570.62 -1474.62 7589.08 -1801.98 7758.48L1238.26 10502.3C1358.42 10141 1324.96 9733.76 1155.35 9337.38ZM3234.39 3548.04C3596.39 3124.54 4120.94 2997.63 4590.7 3421.59C5060.45 3845.55 5001.8 4401.24 4643.81 4820.05C4285.83 5238.86 3744.15 5375.25 3279.34 4955.76C2814.52 4536.26 2868.38 3976.24 3234.39 3548.04ZM857.802 6328.43C1219.8 5904.92 1744.35 5778.02 2214.11 6201.98C2683.86 6625.93 2625.21 7181.63 2267.22 7600.44C1909.24 8019.25 1367.56 8155.64 902.747 7736.14C437.933 7316.65 491.792 6756.63 857.802 6328.43Z" fill="#459271"/>
<path d="M-2928.1 4482.47C-2998.26 4318.23 -2878.04 4154.93 -2708.12 4186.18C-1973.09 4321.83 -1211.8 4088.4 -641.723 3421.46C-71.6458 2754.53 44.6039 2020.06 -140.659 1317.34C-183.921 1153.13 -61.2426 1009.61 102.643 1032.35C805.827 1129.5 1523.71 888.114 2067.55 251.866C2452.94 -199 2636.06 -710.87 2645.71 -1220.12L-229.757 -3815.24C-240.069 -3810.61 -251.1 -3806.9 -263.229 -3804.75C-735.692 -3719.88 -1188.71 -3466.65 -1564.95 -3026.48C-2121.17 -2375.76 -2262.81 -1616.54 -2076.06 -918.048C-2033.69 -760.22 -2149.74 -624.098 -2307.45 -646.279C-3007.59 -744.87 -3723.25 -501.477 -4274.36 143.269C-4825.47 788.015 -4981.62 1603.84 -4766.05 2321.36C-4712.72 2498.56 -4858.9 2647.64 -5034.69 2597.42C-5486.98 2468.28 -5926.37 2489.33 -6299.58 2682.45L-2833.58 5810.53C-2696.59 5398.64 -2734.74 4934.35 -2928.1 4482.47ZM-557.904 -2117.62C-145.21 -2600.43 452.797 -2745.11 988.34 -2261.78C1523.88 -1778.45 1457.02 -1144.94 1048.9 -667.478C640.776 -190.016 23.2417 -34.5254 -506.666 -512.769C-1036.57 -991.013 -975.171 -1629.46 -557.904 -2117.62ZM-3267.32 1052.13C-2854.62 569.32 -2256.61 424.641 -1721.07 907.97C-1185.53 1391.3 -1252.4 2024.81 -1660.52 2502.28C-2068.64 2979.74 -2686.17 3135.23 -3216.08 2656.98C-3745.98 2178.74 -3684.58 1540.29 -3267.32 1052.13Z" fill="#459271"/>
</g>
</g>
<defs>
<clipPath id="clip0_1673_10369">
<rect width="2200" height="5778" fill="white"/>
</clipPath>
<clipPath id="clip1_1673_10369">
<rect width="2200" height="5780" fill="white" transform="translate(0 -1)"/>
</clipPath>
</defs>
</svg>
