<svg preserveAspectRatio="none" width="100%" height="100%" overflow="visible" style="display: block;" viewBox="0 0 55 55" fill="none" xmlns="http://www.w3.org/2000/svg">
<g id="svg" clip-path="url(#clip0_0_151)">
<path id="Vector" d="M27.5 55C42.689 55 55 42.689 55 27.5C55 12.311 42.689 0 27.5 0C12.311 0 0 12.311 0 27.5C0 42.689 12.311 55 27.5 55Z" fill="var(--fill-0, #F28C3B)"/>
<path id="Vector_2" d="M29.9724 22.768C28.6405 24.0999 26.4668 24.0999 25.1349 22.768L20.0898 17.7228L17.6285 20.1841L22.6736 25.2293C24.0055 26.5612 24.0055 28.7348 22.6736 30.0667L17.6818 35.0586L20.1431 37.5199L25.1349 32.528C26.4668 31.1961 28.6405 31.1961 29.9723 32.528L34.9057 37.4613L37.367 35L32.4336 30.0667C31.1018 28.7348 31.1018 26.5612 32.4337 25.2293L37.4202 20.2428L34.9589 17.7815L29.9724 22.768Z" fill="var(--fill-0, #EDE8DB)"/>
</g>
<defs>
<clipPath id="clip0_0_151">
<rect width="55" height="55" fill="white"/>
</clipPath>
</defs>
</svg>
