<svg width="480" height="700" viewBox="0 0 480 700" preserveAspectRatio="none" fill="none" xmlns="http://www.w3.org/2000/svg">
<rect width="480" height="700" fill="#EDE8DB"/>
<path d="M80.2236 8291.96C43.5687 8158.62 101.654 8042.41 186.532 8081.27C553.695 8249.71 930.011 8134.36 1206.58 7666.55C1483.15 7198.73 1533.19 6639.49 1433.55 6078.88C1410.28 5947.88 1469.8 5847.21 1551.58 5878.95C1902.49 6014.82 2257.12 5889.56 2520.97 5443.27C2707.94 5127.02 2793.61 4746.06 2793.01 4352.2L1334.71 2093.15C1329.63 2095.85 1324.18 2097.77 1318.17 2098.4C1083.99 2123.48 861.272 2280.73 678.742 2589.48C408.894 3045.92 346.48 3622.16 446.822 4179.62C469.577 4305.59 413.28 4401.1 334.574 4370.33C-14.8399 4233.61 -368.344 4360.61 -635.712 4812.86C-903.079 5265.11 -972.109 5883.97 -857.231 6458.66C-828.813 6600.6 -899.964 6703.55 -987.967 6649.49C-1214.38 6510.44 -1432.78 6488.9 -1616.43 6606.44L141.357 9329.43C205.142 9021.99 181.23 8658.85 80.2236 8291.96ZM1189.47 3380.64C1389.68 3041.98 1685.69 2981.35 1957.29 3402.09C2228.9 3822.83 2202.35 4308.08 2004.36 4642.99C1806.36 4977.9 1500.74 5045.22 1232 4628.91C963.259 4212.6 987.031 3723.06 1189.47 3380.64ZM-124.988 5604.02C75.2277 5265.36 371.24 5204.73 642.841 5625.47C914.442 6046.21 887.898 6531.46 689.901 6866.37C491.905 7201.28 186.291 7268.6 -82.4514 6852.29C-351.194 6435.98 -327.422 5946.44 -124.988 5604.02Z" fill="#459271"/>
<path d="M-3136.15 2377.24C-3145.27 2192.44 -3045.37 2075.93 -2953.82 2166.52C-2557.91 2558.82 -2076.99 2600.92 -1623.61 2153.09C-1170.23 1705.26 -964.382 1031.01 -937.498 280.958C-931.198 105.697 -833.633 9.32545 -743.935 89.4847C-358.989 433.023 98.5357 452.008 531.051 24.7826C837.546 -277.963 1039.58 -711.725 1141.61 -1204.33L-16.0668 -4749.91C-22.8596 -4749.04 -29.8891 -4749.34 -37.2547 -4751.53C-324.346 -4836.11 -632.186 -4749.81 -931.406 -4454.25C-1373.76 -4017.3 -1598.87 -3327.93 -1624.1 -2581.46C-1629.7 -2412.74 -1722.06 -2321.23 -1808.32 -2398.66C-2191.25 -2742.52 -2647.88 -2758.76 -3086.17 -2325.83C-3524.47 -1892.9 -3768.62 -1153.53 -3780.93 -378.334C-3783.91 -186.853 -3896.01 -93.3923 -3987.33 -204.528C-4222.3 -490.412 -4478.33 -625.441 -4729 -569.434L-3333.57 3704.29C-3176.95 3351.58 -3110.86 2885.84 -3136.15 2377.24ZM-525.966 -3212.52C-197.755 -3536.71 172.684 -3465.96 388.295 -2805.61C603.906 -2145.27 445.51 -1551.87 120.936 -1231.27C-203.638 -910.662 -587.326 -977.795 -800.668 -1631.19C-1014.01 -2284.59 -857.815 -2884.73 -525.966 -3212.52ZM-2680.73 -1084.1C-2352.52 -1408.3 -1982.08 -1337.55 -1766.47 -677.201C-1550.86 -16.8546 -1709.26 576.543 -2033.83 897.146C-2358.41 1217.75 -2742.09 1150.62 -2955.44 497.219C-3168.78 -156.179 -3012.58 -756.314 -2680.73 -1084.1Z" fill="#459271"/>
</svg>
