<svg width="1280" height="1000" viewBox="0 0 1280 1000" preserveAspectRatio="none" overflow="hidden" fill="none" xmlns="http://www.w3.org/2000/svg" style="overflow:hidden">
<path d="M-2097.81 3062.18C-2144.05 2953.95 -2064.82 2846.33 -1952.84 2866.93C-1468.46 2956.32 -966.761 2802.49 -591.076 2362.97C-215.391 1923.45 -138.782 1439.44 -260.872 976.339C-289.381 868.123 -208.535 773.541 -100.534 788.526C362.87 852.552 835.959 693.475 1194.36 274.182C1448.33 -22.9418 1569.01 -360.268 1575.37 -695.864L-319.588 -2406.07C-326.383 -2403.02 -333.653 -2400.58 -341.646 -2399.16C-653.002 -2343.23 -951.545 -2176.35 -1199.49 -1886.27C-1566.04 -1457.44 -1659.39 -957.112 -1536.31 -496.799C-1508.39 -392.789 -1584.87 -303.084 -1688.8 -317.701C-2150.2 -382.674 -2621.83 -222.276 -2985.01 202.616C-3348.2 627.509 -3451.1 1165.14 -3309.04 1637.99C-3273.89 1754.77 -3370.23 1853.01 -3486.08 1819.92C-3784.14 1734.82 -4073.7 1748.69 -4319.64 1875.96L-2035.52 3937.39C-1945.25 3665.95 -1970.39 3359.98 -2097.81 3062.18ZM-535.839 -1287.33C-263.871 -1605.5 130.22 -1700.85 483.147 -1382.33C836.074 -1063.81 792.008 -646.323 523.054 -331.672C254.1 -17.0212 -152.86 85.4486 -502.073 -229.718C-851.286 -544.884 -810.821 -965.624 -535.839 -1287.33ZM-2321.36 801.564C-2049.39 483.387 -1655.3 388.043 -1302.38 706.561C-949.449 1025.08 -993.514 1442.57 -1262.47 1757.22C-1531.42 2071.87 -1938.38 2174.34 -2287.6 1859.17C-2636.81 1544.01 -2596.34 1123.27 -2321.36 801.564Z" fill="#459271"/>
</svg>
