<svg width="1280" height="3322" viewBox="0 0 1280 3322" fill="none" xmlns="http://www.w3.org/2000/svg">
<path transform="translate(0, -2800)" d="M335.187 8223.18C288.949 8114.95 368.176 8007.33 480.155 8027.93C964.54 8117.32 1466.24 7963.49 1841.92 7523.97C2217.61 7084.46 2294.22 6600.44 2172.13 6137.34C2143.62 6029.12 2224.46 5934.54 2332.47 5949.53C2795.87 6013.55 3268.96 5854.48 3627.36 5435.18C3881.33 5138.06 4002.01 4800.73 4008.37 4465.14L2113.41 2754.93C2106.62 2757.98 2099.35 2760.42 2091.35 2761.85C1780 2817.77 1481.45 2984.65 1233.51 3274.73C866.956 3703.56 773.612 4203.89 896.687 4664.2C924.606 4768.21 848.128 4857.92 744.198 4843.3C282.799 4778.33 -188.827 4938.72 -552.013 5363.62C-915.199 5788.51 -1018.1 6326.14 -876.04 6799C-840.893 6915.77 -937.227 7014.01 -1053.08 6980.92C-1351.14 6895.82 -1640.7 6909.69 -1886.64 7036.96L397.476 9098.39C487.75 8826.95 462.611 8520.98 335.187 8223.18ZM111.638 5962.57C383.606 5644.39 777.698 5549.04 1130.62 5867.56C1483.55 6186.08 1439.49 6603.57 1170.53 6918.22C901.577 7232.87 494.618 7335.34 145.405 7020.17C-203.808 6705.01 -163.344 6284.27 111.638 5962.57Z" fill="#459271"/>
</svg>
